<?xml version="1.0" encoding="UTF-8" standalone="no"?>
<!-- Uploaded to: SVG Repo, www.svgrepo.com, Generator: SVG Repo Mixer Tools -->

<svg
   fill="#000000"
   width="800px"
   height="800px"
   viewBox="0 0 32 32"
   id="icon"
   version="1.1"
   sodipodi:docname="copy-link.svg"
   inkscape:version="1.4.2 (f4327f4, 2025-05-13)"
   xmlns:inkscape="http://www.inkscape.org/namespaces/inkscape"
   xmlns:sodipodi="http://sodipodi.sourceforge.net/DTD/sodipodi-0.dtd"
   xmlns="http://www.w3.org/2000/svg"
   xmlns:svg="http://www.w3.org/2000/svg">
  <sodipodi:namedview
     id="namedview3"
     pagecolor="#505050"
     bordercolor="#eeeeee"
     borderopacity="1"
     inkscape:showpageshadow="0"
     inkscape:pageopacity="0"
     inkscape:pagecheckerboard="0"
     inkscape:deskcolor="#505050"
     inkscape:zoom="1.00875"
     inkscape:cx="400"
     inkscape:cy="400"
     inkscape:window-width="1920"
     inkscape:window-height="1009"
     inkscape:window-x="-8"
     inkscape:window-y="-8"
     inkscape:window-maximized="1"
     inkscape:current-layer="icon" />
  <defs
     id="defs1">
    <style
       id="style1">
      .cls-1 {
        fill: none;
      }
    </style>
  </defs>
  <path
     d="M 11.419498,19.390713 A 5.5922679,5.5922679 0 0 1 7.4644682,9.8436419 L 13.234984,4.0742561 a 5.592977,5.592977 0 0 1 7.909947,7.9093809 l -0.624265,0.624604 -1.600277,-1.597 0.630368,-0.630594 a 3.3343824,3.3343824 0 0 0 -0.0044,-4.7080349 3.4135034,3.4135034 0 0 0 -4.713348,0 L 9.0631633,11.441659 a 3.3314436,3.3314436 0 0 0 0,4.712443 3.4135034,3.4135034 0 0 0 4.7133477,0 l 1.598582,1.598808 a 5.558359,5.558359 0 0 1 -3.955595,1.637803 z"
     id="path1"
     style="stroke-width:1.1303" />
  <path
     d="m 20.461891,17.130115 a 5.5922679,5.5922679 0 0 1 -3.95503,-9.5470714 l 0.624603,-0.6246033 1.598583,1.5989212 -0.624604,0.6242642 a 3.3316697,3.3316697 0 0 0 0,4.7121043 3.4135034,3.4135034 0 0 0 4.713348,0 c 0.293877,-0.293878 5.345523,-5.3455239 5.770516,-5.7696122 a 3.3355127,3.3355127 0 0 0 0,-4.7118779 3.4135034,3.4135034 0 0 0 -4.713348,0 L 22.277377,1.8134318 a 5.5930592,5.5930592 0 0 1 7.909947,7.9096072 c -0.425558,0.424992 -5.475169,5.473813 -5.768821,5.768482 a 5.5602805,5.5602805 0 0 1 -3.956612,1.638594 z"
     id="path2"
     style="stroke-width:1.1303" />
  <path
     d="M 25.042541,31.824004 H 2.4365586 A 2.2629719,2.2629719 0 0 1 0.17596035,29.563406 V 6.9574231 A 2.2629719,2.2629719 0 0 1 2.4365586,4.6968248 H 6.9577551 V 6.9574231 H 2.4365586 V 29.563406 H 25.042541 V 18.260414 h 2.260598 v 11.302992 a 2.2629719,2.2629719 0 0 1 -2.260598,2.260598 z"
     id="path3"
     style="stroke-width:1.1303" />
  <rect
     id="_Transparent_Rectangle_"
     data-name="&lt;Transparent Rectangle&gt;"
     class="cls-1"
     width="32"
     height="32" />
</svg>
